HIERARCHY
ROOT Hips
{
	OFFSET 0.000000 0.000000 0.000000
	CHANNELS 6 Xposition Yposition Zposition Zrotation Yrotation Xrotation 
	JOINT LeftUpLeg_virtual
	{
		OFFSET 0.000000 0.000000 0.000000
		CHANNELS 3 Zrotation Yrotation Xrotation
		JOINT LeftUpLeg
		{
			OFFSET 8.479694 -4.795517 -0.379053
			CHANNELS 3 Zrotation Yrotation Xrotation
			JOINT LeftLeg
			{
				OFFSET 0.485052 -32.551468 0.112863
				CHANNELS 3 Zrotation Yrotation Xrotation
				JOINT LeftFoot
				{
					OFFSET 0.438033 -32.635670 -3.012641
					CHANNELS 3 Zrotation Yrotation Xrotation
					JOINT LeftToeBase
					{
						OFFSET 0.970169 -13.225353 11.864223
						CHANNELS 3 Zrotation Yrotation Xrotation
						End Site
						{
							OFFSET 0.000000 0.000000 0.000000
						}
					}
				}
			}
		}
	}
	JOINT RightUpLeg_virtual
	{
		OFFSET 0.000000 0.000000 0.000000
		CHANNELS 3 Zrotation Yrotation Xrotation
		JOINT RightUpLeg
		{
			OFFSET -8.479694 -4.795517 -0.379053
			CHANNELS 3 Zrotation Yrotation Xrotation
			JOINT RightLeg
			{
				OFFSET -0.484100 -32.551483 0.112903
				CHANNELS 3 Zrotation Yrotation Xrotation
				JOINT RightFoot
				{
					OFFSET -0.438985 -32.635651 -3.012681
					CHANNELS 3 Zrotation Yrotation Xrotation
					JOINT RightToeBase
					{
						OFFSET -0.970169 -13.225354 11.864223
						CHANNELS 3 Zrotation Yrotation Xrotation
						End Site
						{
							OFFSET 0.000000 0.000000 0.000000
						}
					}
				}
			}
		}
	}
	JOINT Spine_virtual
	{
		OFFSET 0.000000 0.000000 0.000000
		CHANNELS 3 Zrotation Yrotation Xrotation
		JOINT Spine
		{
			OFFSET 0.000000 7.722015 1.166203
			CHANNELS 3 Zrotation Yrotation Xrotation
			JOINT Spine1
			{
				OFFSET 0.000000 12.024086 0.248766
				CHANNELS 3 Zrotation Yrotation Xrotation
				JOINT Spine2
				{
					OFFSET -0.000000 11.503036 -0.491240
					CHANNELS 3 Zrotation Yrotation Xrotation
					JOINT Neck_virtual
					{
						OFFSET 0.000000 0.000000 0.000000
						CHANNELS 3 Zrotation Yrotation Xrotation
						JOINT Neck
						{
							OFFSET 0.000000 18.430687 -3.123054
							CHANNELS 3 Zrotation Yrotation Xrotation
							JOINT Head
							{
								OFFSET -0.000000 9.051071 1.034021
								CHANNELS 3 Zrotation Yrotation Xrotation
								End Site
								{
									OFFSET 0.000000 0.000000 0.000000
								}
							}
						}
					}
					JOINT LeftShoulder_virtual
					{
						OFFSET 0.000000 0.000000 0.000000
						CHANNELS 3 Zrotation Yrotation Xrotation
						JOINT LeftShoulder
						{
							OFFSET 6.197824 13.665230 -4.064723
							CHANNELS 3 Zrotation Yrotation Xrotation
							JOINT LeftArm
							{
								OFFSET 7.778132 -0.187073 -1.709282
								CHANNELS 3 Zrotation Yrotation Xrotation
								JOINT LeftForeArm
								{
									OFFSET 21.954697 0.000000 -2.041093
									CHANNELS 3 Zrotation Yrotation Xrotation
									JOINT LeftHand
									{
										OFFSET 22.992908 0.000000 -0.870901
										CHANNELS 3 Zrotation Yrotation Xrotation
										End Site
										{
											OFFSET 0.000000 0.000000 0.000000
										}
									}
								}
							}
						}
					}
					JOINT RightShoulder_virtual
					{
						OFFSET 0.000000 0.000000 0.000000
						CHANNELS 3 Zrotation Yrotation Xrotation
						JOINT RightShoulder
						{
							OFFSET -6.197824 13.665230 -4.064723
							CHANNELS 3 Zrotation Yrotation Xrotation
							JOINT RightArm
							{
								OFFSET -7.778132 -0.187073 -1.709282
								CHANNELS 3 Zrotation Yrotation Xrotation
								JOINT RightForeArm
								{
									OFFSET -21.954697 0.000000 -2.041093
									CHANNELS 3 Zrotation Yrotation Xrotation
									JOINT RightHand
									{
										OFFSET -22.992908 0.000000 -0.870901
										CHANNELS 3 Zrotation Yrotation Xrotation
										End Site
										{
											OFFSET 0.000000 0.000000 0.000000
										}
									}
								}
							}
						}
					}
				}
			}
		}
	}
}
MOTION
Frames: 14
Frame Time: 0.033333
-85.948219 81.366623 123.042442 -179.578897 83.167177 -179.678890 -3.156324 0.550885 12.896061 -7.607125 6.843928 -28.900921 11.288082 9.229629 29.601763 -6.869295 -11.981279 -9.166278 0.000000 0.000000 0.000000 2.671427 -1.210799 11.531336 -2.743435 2.369194 -34.996025 -2.456549 4.517905 22.553536 6.018711 7.793852 0.911376 0.000000 0.000000 0.000000 3.045777 3.398010 2.658033 0.119041 -2.038556 -2.317754 -1.479269 -1.459049 9.369027 -0.017205 0.014349 -0.015290 -1.769815 0.032909 10.788456 -1.586051 -0.259655 -5.564320 0.000000 0.000000 0.000000 0.172775 0.555485 7.782005 -5.478385 -0.951787 1.544333 -68.363145 -12.064341 16.726259 6.763294 -27.274909 15.005873 0.000000 0.000000 0.000000 -4.841318 2.180992 6.831768 29.267989 -0.867565 1.040141 52.217090 -5.435358 18.359390 -8.021948 32.818229 -0.566923 0.000000 0.000000 0.000000 
-86.135574 81.362411 123.266396 179.923343 82.989940 179.527738 -3.410959 0.765818 12.758684 -7.749120 6.877984 -29.017721 11.239256 9.589773 29.343616 -6.747439 -11.833291 -9.446966 0.000000 0.000000 0.000000 3.001218 -0.897643 11.310797 -3.575701 2.581004 -35.357871 -2.117790 5.888483 22.190745 6.142566 7.747332 1.407895 0.000000 0.000000 0.000000 2.885303 3.550796 3.071519 0.041588 -2.129642 -2.050564 -1.448795 -1.503966 9.428017 0.004321 -0.005034 -0.064525 -1.723494 -0.000298 10.791300 -1.573330 -0.146512 -5.644715 0.000000 0.000000 0.000000 0.263234 0.316725 7.781033 -5.528604 -0.890175 1.602858 -68.479559 -11.778327 16.845239 6.918061 -26.917373 14.950024 0.000000 0.000000 0.000000 -4.785723 2.158733 6.801721 29.275796 -0.976499 1.025421 52.291508 -5.666107 18.471115 -8.024848 32.614396 -0.556754 0.000000 0.000000 0.000000 
-86.334282 81.345970 123.527023 179.381340 82.914371 178.816743 -3.441646 0.787628 12.817699 -7.479647 6.079542 -28.942343 11.393494 9.244497 29.302034 -6.611773 -11.562398 -9.343794 0.000000 0.000000 0.000000 3.822499 -0.530813 11.227985 -5.175568 2.889403 -35.804251 -1.645908 7.880426 22.013792 7.570605 8.681022 2.698242 0.000000 0.000000 0.000000 2.686409 3.616585 3.479421 0.120993 -2.217072 -1.757949 -1.452470 -1.558967 9.416322 -0.023006 -0.084931 -0.058685 -1.729691 0.021027 10.849230 -1.635936 -0.158551 -5.798560 0.000000 0.000000 0.000000 0.258575 0.449162 7.870864 -5.639459 -1.053060 1.662081 -68.604572 -11.625563 17.165046 7.182281 -26.315945 14.842783 0.000000 0.000000 0.000000 -4.772360 2.171349 6.855175 29.155154 -0.968819 1.024709 52.515627 -5.976345 18.607670 -8.197141 32.315735 -0.649516 0.000000 0.000000 0.000000 
-86.516785 81.314445 123.804893 179.608212 82.759387 178.916409 -3.464839 0.818338 12.867989 -7.148085 4.880882 -28.902342 11.528516 8.802924 29.213822 -6.313638 -11.033970 -9.348916 0.000000 0.000000 0.000000 3.883830 -0.133847 11.158014 -5.951096 3.458658 -36.311342 -1.611114 8.340397 21.777124 9.280774 10.095637 4.300859 0.000000 0.000000 0.000000 2.684295 3.602652 3.844488 0.191858 -2.354927 -1.422472 -1.528872 -1.606728 9.577659 0.003086 -0.131075 -0.101271 -1.777136 0.016412 10.784201 -1.751348 -0.082745 -6.258048 0.000000 0.000000 0.000000 0.217787 0.479681 7.930277 -5.733322 -1.407647 1.754729 -68.630267 -11.692088 17.512713 7.303635 -25.705205 14.828853 0.000000 0.000000 0.000000 -4.828896 2.192358 6.821433 28.785115 -0.921394 1.092573 52.921371 -6.391468 18.947957 -8.214791 32.182666 -0.605302 0.000000 0.000000 0.000000 
-86.671585 81.281326 124.092522 179.725022 82.432829 178.868407 -3.672169 0.773066 12.949910 -6.670283 3.929522 -28.885270 11.613519 8.429834 29.155151 -5.952145 -10.345431 -9.485567 0.000000 0.000000 0.000000 2.606599 0.332378 11.114413 -5.283067 4.340388 -36.764770 -1.443203 8.773675 21.611443 10.119458 11.324437 5.822296 0.000000 0.000000 0.000000 2.661819 3.411058 4.236468 0.277233 -2.672871 -0.981082 -1.628063 -1.651069 9.702204 0.034556 -0.195998 -0.110794 -1.913952 -0.180004 10.896278 -2.018500 0.197849 -6.661872 0.000000 0.000000 0.000000 0.092292 0.497169 7.996707 -5.855025 -1.840197 1.881542 -68.564683 -12.001859 17.723748 7.493539 -25.064484 14.926212 0.000000 0.000000 0.000000 -4.942757 2.386809 6.939684 28.352371 -0.824943 1.181037 53.487160 -6.831840 19.451477 -8.490403 32.193987 -0.709188 0.000000 0.000000 0.000000 
-86.775505 81.259232 124.377762 -179.914477 82.539517 179.227893 -3.380915 0.727978 13.044703 -6.769421 3.289503 -28.959930 11.837526 8.155012 29.028475 -5.557682 -10.155702 -9.481706 0.000000 0.000000 0.000000 2.197120 0.332043 11.235815 -4.584175 4.154992 -37.021401 -1.110606 8.677439 21.614557 9.754229 11.605293 5.903550 0.000000 0.000000 0.000000 2.706425 3.585260 4.582963 0.356592 -2.646156 -0.546253 -1.714894 -1.779788 9.872781 -0.002846 -0.107090 -0.071129 -1.987420 -0.117731 10.968669 -2.223726 0.397685 -7.229750 0.000000 0.000000 0.000000 -0.001950 0.563964 8.112356 -5.867849 -2.639766 2.061375 -68.349689 -12.735745 17.953507 7.698754 -24.670927 14.764685 0.000000 0.000000 0.000000 -5.024577 2.219429 7.003000 27.776438 -0.808399 1.202437 54.053014 -7.236504 19.929585 -8.500666 32.433041 -0.575311 0.000000 0.000000 0.000000 
-86.798477 81.240753 124.644165 -179.642212 82.612067 179.475405 -3.144473 0.891125 13.209556 -6.824035 2.770739 -29.057462 12.029937 7.903642 28.877842 -5.478007 -10.064071 -9.425641 0.000000 0.000000 0.000000 2.212617 0.411258 11.452335 -4.431493 4.001731 -37.302955 -0.926487 8.609749 21.703331 9.422511 11.762597 5.800479 0.000000 0.000000 0.000000 2.758386 3.584633 5.031901 0.421241 -2.735728 -0.093340 -1.789695 -1.550728 10.002179 0.030448 -0.143398 -0.142679 -2.138466 -0.026952 11.148701 -2.503996 0.397880 -7.816079 0.000000 0.000000 0.000000 -0.182573 0.517709 8.387360 -5.801110 -3.268278 2.190613 -68.141717 -13.454540 17.939034 7.764399 -24.659169 15.032355 0.000000 0.000000 0.000000 -5.178926 2.223109 7.218059 27.089309 -0.821537 1.256255 54.663657 -7.815065 20.432045 -8.718479 32.687605 -0.587932 0.000000 0.000000 0.000000 
-86.693298 81.234810 124.934143 -179.459259 82.620652 179.637418 -2.958068 0.996609 13.479390 -6.782378 2.420666 -29.175201 12.124778 7.757658 28.647982 -5.503803 -10.078587 -9.403280 0.000000 0.000000 0.000000 2.378100 0.505933 11.789770 -4.428213 3.918439 -37.627580 -0.762217 8.560730 21.822652 9.058676 11.904414 5.551581 0.000000 0.000000 0.000000 2.940782 3.779975 5.517375 0.479968 -2.815613 0.301977 -1.919537 -1.529846 10.193494 0.009798 -0.219589 -0.048737 -2.228999 -0.079948 11.261315 -2.826538 0.834163 -8.345135 0.000000 0.000000 0.000000 -0.263968 0.538749 8.451723 -5.563727 -3.960015 2.343196 -67.809018 -14.334439 17.786402 7.746952 -24.805750 15.386524 0.000000 0.000000 0.000000 -5.273336 2.337584 7.383779 26.649595 -0.683896 1.431430 55.054422 -8.239317 20.898946 -8.957896 32.933922 -0.868672 0.000000 0.000000 0.000000 
-86.402977 81.229729 125.261299 -179.318106 82.533288 179.744433 -2.744168 0.937317 13.851146 -6.655749 2.241745 -29.288056 12.202543 7.680291 28.434477 -5.655383 -10.156960 -9.481819 0.000000 0.000000 0.000000 2.551043 0.530897 12.233690 -4.412851 3.902235 -37.925411 -0.542528 8.528830 21.945717 8.624221 12.036434 5.183952 0.000000 0.000000 0.000000 3.141582 3.892440 6.152279 0.503002 -2.998671 0.664623 -1.985619 -1.481493 10.289668 0.013630 -0.098069 -0.110345 -2.315193 -0.042486 11.468342 -3.084419 0.773518 -8.866443 0.000000 0.000000 0.000000 -0.379612 0.607488 8.678472 -5.232401 -4.589351 2.567394 -67.572209 -15.317362 17.344021 7.772113 -25.387144 15.489843 0.000000 0.000000 0.000000 -5.341290 2.372122 7.632862 26.145857 -0.454854 1.464341 55.401427 -8.728289 20.992923 -8.874426 32.733842 -0.711653 0.000000 0.000000 0.000000 
-85.912102 81.221436 125.624641 -179.342640 82.241393 179.746468 -2.554023 0.461942 14.281968 -6.501379 2.341635 -29.355026 12.172968 7.656121 28.343041 -5.896039 -10.249667 -9.745066 0.000000 0.000000 0.000000 2.722723 0.386991 12.692608 -4.385910 3.891660 -38.120502 -0.272329 8.475367 22.105549 8.173809 12.234829 4.795426 0.000000 0.000000 0.000000 3.400288 3.725845 6.686758 0.513015 -2.807145 1.006985 -2.055340 -1.403190 10.413488 0.015320 -0.124431 -0.033549 -2.426899 -0.020801 11.525558 -3.429543 1.205669 -9.349764 0.000000 0.000000 0.000000 -0.399133 0.559804 8.873097 -4.835551 -5.019557 2.679840 -67.314588 -16.363636 16.172826 7.485684 -26.301361 16.043865 0.000000 0.000000 0.000000 -5.389059 2.344521 7.885762 25.915462 -0.051919 1.620829 55.571539 -8.801388 20.893257 -8.974669 32.189070 -1.083055 0.000000 0.000000 0.000000 
-85.172417 81.206642 126.029961 -179.138991 81.754257 179.981509 -2.391712 -0.316160 14.671788 -6.269583 2.654792 -29.331015 12.100874 7.448770 28.581131 -6.083600 -10.499840 -10.348782 0.000000 0.000000 0.000000 2.878178 0.093571 13.121388 -4.338639 3.913820 -38.085213 -0.019430 8.081700 22.372643 7.775628 12.496705 4.389342 0.000000 0.000000 0.000000 3.695726 3.514273 7.245854 0.488118 -2.671582 1.304854 -2.111473 -1.291960 10.460196 -0.044539 0.000946 -0.130044 -2.402373 0.031123 11.547889 -3.617167 1.443119 -9.879631 0.000000 0.000000 0.000000 -0.447206 0.568889 8.892894 -4.453131 -5.184816 2.800809 -67.254018 -17.453541 14.267122 7.060507 -27.264657 16.452100 0.000000 0.000000 0.000000 -5.374233 2.410099 7.916248 25.776085 0.318657 1.850319 55.578503 -8.893354 20.600870 -8.713930 31.557175 -0.964373 0.000000 0.000000 0.000000 
-84.196480 81.189552 126.485840 -179.749679 80.858600 179.522998 -2.258883 -0.835080 14.720714 -5.791956 2.535852 -29.317255 11.987867 7.215349 29.551947 -6.344894 -10.679283 -10.759806 0.000000 0.000000 0.000000 2.959354 -0.238511 13.402552 -4.294547 3.950629 -37.819372 0.145670 7.635176 22.713775 7.277385 12.575656 3.791834 0.000000 0.000000 0.000000 3.894673 3.090083 7.642621 0.396756 -2.459313 1.490515 -2.178558 -1.244874 10.270356 -0.005932 0.011012 -0.070473 -2.434461 0.163213 11.762532 -3.696355 1.448504 -9.992048 0.000000 0.000000 0.000000 -0.512206 0.751008 8.893513 -4.317666 -5.105493 3.012582 -67.281981 -18.380900 11.951272 7.045402 -28.403222 16.434723 0.000000 0.000000 0.000000 -5.430741 2.597095 8.094558 25.773961 0.859433 2.088655 55.462427 -8.622088 20.135254 -8.505402 30.763432 -1.181261 0.000000 0.000000 0.000000 
-82.978035 81.185226 126.935593 178.310845 79.531966 178.041872 -2.192849 -1.263428 14.732739 -5.359175 2.238235 -29.281424 11.956095 7.346469 30.240758 -7.184741 -11.124281 -10.624901 0.000000 0.000000 0.000000 2.933698 -0.589998 13.400297 -4.303359 3.891344 -37.527573 0.242884 7.290447 23.160347 6.641120 12.361124 2.925284 0.000000 0.000000 0.000000 3.964372 3.065698 7.593406 0.248936 -2.266758 1.479586 -2.207120 -1.242199 10.402475 0.038951 0.033545 -0.061731 -2.416705 0.068280 11.763491 -3.734691 1.472981 -10.117791 0.000000 0.000000 0.000000 -0.436903 0.756474 8.969004 -4.064061 -5.102054 3.157287 -67.518462 -19.056928 9.622958 6.578063 -29.587089 16.665353 0.000000 0.000000 0.000000 -5.407068 2.564371 8.094558 25.985658 1.349732 2.399761 55.068557 -8.309824 19.764641 -8.185093 30.318960 -1.292308 0.000000 0.000000 0.000000 
-81.520966 81.184868 127.403069 178.471258 77.941181 178.620853 -1.918522 -1.539986 14.730611 -4.761347 2.112892 -29.085387 11.960081 7.400912 30.486993 -8.480636 -11.768988 -9.502776 0.000000 0.000000 0.000000 3.101074 -0.927050 13.295557 -4.136221 3.923670 -36.988145 0.240479 6.846821 23.611696 5.728355 11.983114 2.138228 0.000000 0.000000 0.000000 4.143216 2.757424 7.456981 0.196183 -2.070999 1.373996 -2.209678 -1.266381 10.350573 0.104931 0.011045 0.064003 -2.451671 0.158504 11.745996 -3.692868 1.733667 -10.075228 0.000000 0.000000 0.000000 -0.428921 0.717604 8.833202 -4.005224 -4.760550 3.386548 -67.723511 -18.952672 7.744459 6.210752 -30.764470 16.868841 0.000000 0.000000 0.000000 -5.396879 2.591119 8.103357 26.213417 1.963263 2.674839 54.576705 -7.678745 19.448907 -7.747376 30.068125 -1.475214 0.000000 0.000000 0.000000 
